<svg version="1.1" xmlns="http://www.w3.org/2000/svg" viewBox="0 0 942.9328918457031 569.62890625" width="942.9328918457031" height="569.62890625" class="excalidraw-svg"><!-- svg-source:excalidraw --><metadata></metadata><defs><style class="style-fonts">
      </style></defs><rect x="0" y="0" width="942.9328918457031" height="569.62890625" fill="#211a25"></rect><g transform="translate(63.25189208984375 10.325531005859375) rotate(0 -26.625946044921875 59.586578369140625)" stroke="none"><path fill="#d3d3d3" d="M 2.44,2.71 Q 2.44,2.71 -1.86,6.41 -6.18,10.11 -14.94,19.86 -23.70,29.61 -29.81,37.08 -35.93,44.55 -39.98,50.39 -44.04,56.23 -45.93,59.91 -47.82,63.59 -48.19,66.06 -48.56,68.53 -47.96,71.10 -47.36,73.66 -46.15,76.20 -44.95,78.73 -42.38,83.15 -39.81,87.57 -36.98,91.72 -34.16,95.86 -31.51,99.42 -28.85,102.97 -26.47,105.93 -24.09,108.88 -21.68,111.14 -19.26,113.39 -16.81,116.57 -14.36,119.75 -14.56,120.41 -14.77,121.07 -15.17,121.63 -15.57,122.19 -16.14,122.60 -16.70,123.00 -17.36,123.20 -18.02,123.41 -18.71,123.39 -19.40,123.37 -20.05,123.13 -20.70,122.89 -21.24,122.46 -21.78,122.02 -22.15,121.44 -22.53,120.86 -22.69,120.19 -22.86,119.52 -22.80,118.83 -22.75,118.14 -22.47,117.50 -22.20,116.86 -21.74,116.35 -21.28,115.83 -20.68,115.49 -20.07,115.15 -19.39,115.02 -18.71,114.89 -18.03,114.99 -17.34,115.08 -16.72,115.39 -16.10,115.70 -15.61,116.18 -15.13,116.67 -14.82,117.29 -14.51,117.91 -14.42,118.60 -14.32,119.28 -14.45,119.96 -14.58,120.64 -14.93,121.25 -15.27,121.85 -15.78,122.31 -16.30,122.77 -16.93,123.05 -17.57,123.32 -18.26,123.37 -18.95,123.43 -19.62,123.26 -20.29,123.10 -20.87,122.72 -21.45,122.35 -21.89,121.81 -22.32,121.27 -22.56,120.62 -22.80,119.97 -22.82,119.28 -22.84,118.59 -22.84,118.59 -22.84,118.59 -22.92,119.74 -23.01,120.88 -24.78,118.64 -26.54,116.39 -27.78,114.57 -29.01,112.75 -31.34,109.72 -33.66,106.69 -36.51,103.13 -39.36,99.57 -42.49,95.35 -45.61,91.13 -48.69,86.35 -51.76,81.56 -53.02,78.13 -54.28,74.70 -54.58,70.92 -54.88,67.14 -53.89,64.10 -52.89,61.06 -50.87,57.00 -48.85,52.94 -44.74,46.85 -40.64,40.76 -34.54,33.08 -28.44,25.40 -19.57,15.25 -10.70,5.10 -6.57,1.19 -2.44,-2.71 -2.08,-2.96 -1.72,-3.21 -1.31,-3.37 -0.90,-3.53 -0.46,-3.59 -0.03,-3.64 0.40,-3.60 0.84,-3.55 1.25,-3.39 1.66,-3.24 2.03,-2.99 2.39,-2.75 2.69,-2.42 2.98,-2.09 3.19,-1.71 3.40,-1.32 3.51,-0.89 3.61,-0.47 3.62,-0.03 3.62,0.40 3.52,0.83 3.42,1.26 3.22,1.65 3.02,2.04 2.73,2.37 2.44,2.71 2.44,2.71 L 2.44,2.71 Z"></path></g><g transform="translate(110.42642211914062 35.05859375) rotate(0 2.665985107421875 31.842453002929688)" stroke="none"><path fill="#d3d3d3" d="M 4.22,1.11 Q 4.22,1.11 2.91,5.18 1.60,9.26 0.01,14.75 -1.57,20.23 -2.66,24.37 -3.75,28.51 -4.27,31.68 -4.79,34.84 -5.12,38.02 -5.44,41.19 -5.49,43.96 -5.53,46.73 -5.48,49.30 -5.43,51.87 -5.37,54.52 -5.30,57.16 -5.09,59.62 -4.88,62.09 -6.59,60.36 -8.31,58.64 -5.34,58.24 -2.38,57.83 0.79,57.82 3.98,57.80 7.36,57.61 10.74,57.43 12.88,57.40 15.03,57.38 15.91,57.52 16.79,57.66 17.59,58.08 18.38,58.50 18.99,59.14 19.61,59.79 19.99,60.60 20.36,61.41 20.46,62.30 20.56,63.19 20.37,64.06 20.18,64.94 19.72,65.70 19.26,66.47 18.58,67.05 17.90,67.63 17.08,67.97 16.25,68.30 15.35,68.35 14.46,68.40 13.60,68.16 12.74,67.93 12.00,67.43 11.25,66.93 10.71,66.22 10.17,65.51 9.88,64.66 9.59,63.81 9.59,62.92 9.59,62.03 9.87,61.18 10.16,60.33 10.69,59.62 11.23,58.90 11.97,58.40 12.71,57.90 13.57,57.65 14.43,57.41 15.33,57.46 16.22,57.51 17.05,57.83 17.88,58.16 18.56,58.74 19.25,59.32 19.71,60.08 20.17,60.85 20.37,61.72 20.56,62.59 20.47,63.48 20.37,64.37 20.00,65.18 19.62,66.00 19.01,66.65 18.40,67.30 17.61,67.72 16.82,68.14 15.94,68.28 15.06,68.43 15.06,68.43 15.06,68.43 12.95,68.43 10.85,68.42 7.54,68.32 4.23,68.23 1.32,68.36 -1.57,68.49 -3.94,68.63 -6.31,68.76 -9.41,67.79 -12.51,66.83 -13.52,64.43 -14.53,62.03 -14.28,59.54 -14.02,57.05 -13.90,54.34 -13.77,51.63 -13.57,48.94 -13.36,46.25 -13.06,43.26 -12.75,40.26 -12.23,36.86 -11.72,33.46 -10.96,30.24 -10.20,27.01 -9.34,22.73 -8.48,18.45 -7.21,12.86 -5.95,7.27 -5.08,3.08 -4.22,-1.11 -4.02,-1.60 -3.83,-2.09 -3.52,-2.51 -3.22,-2.94 -2.82,-3.29 -2.42,-3.63 -1.95,-3.87 -1.48,-4.10 -0.97,-4.22 -0.45,-4.34 0.06,-4.33 0.59,-4.32 1.10,-4.19 1.61,-4.05 2.07,-3.80 2.53,-3.55 2.92,-3.19 3.31,-2.84 3.60,-2.40 3.89,-1.96 4.07,-1.47 4.25,-0.97 4.31,-0.45 4.36,0.06 4.29,0.59 4.22,1.11 4.22,1.11 L 4.22,1.11 Z"></path></g><g transform="translate(144.69400024414062 74.22201538085938) rotate(0 39.485687255859375 4.931640625)" stroke="none"><path fill="#d3d3d3" d="M 4.19,2.86 Q 4.19,2.86 1.62,6.12 -0.94,9.39 -1.97,11.43 -2.99,13.48 -2.37,16.01 -1.74,18.55 -2.04,15.63 -2.35,12.72 -1.68,9.54 -1.01,6.37 -0.64,3.94 -0.28,1.51 0.07,-0.70 0.43,-2.92 0.87,-5.32 1.32,-7.73 1.58,-8.53 1.84,-9.33 2.18,-9.95 2.52,-10.58 3.00,-11.10 3.48,-11.63 4.07,-12.02 4.66,-12.41 5.33,-12.66 6.00,-12.90 6.70,-12.97 7.41,-13.05 8.11,-12.95 8.82,-12.86 9.48,-12.59 10.14,-12.33 10.72,-11.92 11.30,-11.51 11.76,-10.97 12.22,-10.43 12.54,-9.80 12.86,-9.16 13.02,-8.47 13.18,-7.78 13.17,-7.07 13.16,-6.36 12.98,-5.67 12.80,-4.98 13.52,-2.89 14.24,-0.80 15.26,1.69 16.28,4.18 12.86,4.33 9.45,4.47 9.85,1.75 10.25,-0.95 11.29,-3.64 12.32,-6.34 13.73,-9.32 15.15,-12.29 16.08,-14.24 17.02,-16.19 23.06,-17.67 29.11,-19.16 30.08,-16.09 31.05,-13.02 31.97,-8.83 32.89,-4.65 33.38,-1.81 33.87,1.01 34.41,3.99 34.96,6.97 32.22,5.31 29.47,3.65 33.09,0.41 36.71,-2.81 40.40,-4.12 44.10,-5.43 46.86,-6.12 49.61,-6.82 51.77,-7.03 53.93,-7.24 56.08,-6.74 58.22,-6.23 60.61,-3.44 63.00,-0.64 63.25,2.12 63.50,4.90 63.36,7.25 63.21,9.59 63.93,12.25 64.65,14.91 65.15,17.91 65.64,20.91 62.87,19.96 60.10,19.02 57.83,19.15 55.57,19.28 58.89,15.18 62.22,11.08 64.93,8.00 67.64,4.92 69.31,2.78 70.99,0.64 72.53,-1.29 74.07,-3.23 78.20,-2.94 82.34,-2.66 84.38,0.19 86.41,3.06 87.37,5.33 88.32,7.61 89.32,10.72 90.32,13.83 91.04,15.96 91.76,18.09 92.70,21.67 93.64,25.24 93.61,26.18 93.58,27.12 93.25,28.00 92.91,28.89 92.32,29.62 91.72,30.35 90.93,30.85 90.13,31.35 89.21,31.57 88.30,31.79 87.36,31.71 86.42,31.63 85.55,31.25 84.69,30.87 83.99,30.24 83.30,29.60 82.84,28.78 82.38,27.96 82.21,27.03 82.04,26.10 82.17,25.17 82.31,24.24 82.73,23.39 83.15,22.55 83.83,21.89 84.50,21.23 85.34,20.82 86.19,20.40 87.13,20.28 88.06,20.16 88.99,20.35 89.91,20.53 90.73,21.00 91.55,21.47 92.17,22.18 92.79,22.88 93.16,23.75 93.53,24.62 93.60,25.56 93.67,26.50 93.43,27.41 93.20,28.33 92.69,29.12 92.17,29.91 91.43,30.49 90.69,31.08 89.81,31.40 88.92,31.71 87.98,31.73 87.03,31.75 86.14,31.47 85.24,31.19 84.47,30.63 83.71,30.07 83.17,29.31 82.62,28.54 82.35,27.63 82.08,26.73 82.08,26.73 82.08,26.73 81.78,25.38 81.47,24.02 80.59,20.84 79.71,17.66 78.60,14.93 77.49,12.21 76.61,10.18 75.74,8.15 75.17,6.01 74.60,3.88 77.06,5.57 79.52,7.27 77.97,9.28 76.42,11.29 74.32,14.83 72.22,18.37 70.44,21.24 68.65,24.10 67.04,26.40 65.43,28.71 62.02,29.75 58.62,30.79 55.53,26.70 52.43,22.61 52.16,20.39 51.88,18.17 51.33,15.74 50.79,13.31 50.66,10.77 50.54,8.24 52.41,6.24 54.28,4.23 51.33,4.64 48.39,5.05 45.61,6.40 42.84,7.76 40.82,9.01 38.81,10.27 36.10,12.33 33.39,14.39 31.00,14.82 28.61,15.26 25.71,11.87 22.81,8.48 22.49,5.92 22.17,3.36 21.58,0.81 20.99,-1.72 20.36,-4.10 19.73,-6.49 19.33,-9.40 18.92,-12.31 23.73,-12.21 28.55,-12.11 27.36,-9.87 26.16,-7.62 25.19,-4.96 24.21,-2.30 23.47,0.23 22.72,2.78 22.04,5.31 21.35,7.84 20.42,10.16 19.49,12.49 16.18,14.23 12.87,15.98 9.91,14.95 6.94,13.91 5.66,11.43 4.37,8.94 3.28,5.97 2.19,3.00 1.76,-0.66 1.33,-4.33 1.59,-6.83 1.84,-9.33 2.18,-9.95 2.52,-10.58 3.00,-11.10 3.48,-11.62 4.07,-12.02 4.66,-12.41 5.33,-12.66 6.00,-12.90 6.70,-12.97 7.41,-13.05 8.11,-12.95 8.82,-12.86 9.48,-12.59 10.14,-12.33 10.72,-11.92 11.30,-11.51 11.76,-10.97 12.22,-10.43 12.54,-9.80 12.86,-9.16 13.02,-8.47 13.18,-7.78 13.17,-7.07 13.16,-6.36 12.98,-5.67 12.80,-4.99 12.44,-4.20 12.08,-3.41 11.33,-0.12 10.58,3.16 10.21,5.63 9.83,8.09 9.45,11.53 9.07,14.97 8.57,17.87 8.07,20.77 7.28,23.63 6.49,26.49 4.60,28.74 2.70,31.00 0.45,31.47 -1.79,31.95 -3.87,30.98 -5.96,30.00 -7.75,27.97 -9.54,25.93 -11.11,22.13 -12.68,18.33 -12.70,15.80 -12.72,13.27 -11.96,11.14 -11.20,9.01 -9.80,6.66 -8.40,4.31 -6.29,0.72 -4.19,-2.86 -3.79,-3.32 -3.39,-3.78 -2.89,-4.13 -2.38,-4.48 -1.81,-4.70 -1.24,-4.92 -0.63,-5.00 -0.02,-5.08 0.57,-5.01 1.18,-4.94 1.76,-4.72 2.33,-4.51 2.84,-4.16 3.34,-3.82 3.75,-3.36 4.16,-2.91 4.45,-2.37 4.74,-1.82 4.89,-1.23 5.04,-0.64 5.04,-0.02 5.04,0.58 4.90,1.17 4.76,1.77 4.48,2.31 4.19,2.86 4.19,2.86 L 4.19,2.86 Z"></path></g><g transform="translate(244.36526489257812 40.72265625) rotate(0 26.468048095703125 35.2587890625)" stroke="none"><path fill="#d3d3d3" d="M 4.08,-0.18 Q 4.08,-0.18 4.11,4.90 4.14,9.98 4.01,17.94 3.88,25.90 3.78,35.33 3.68,44.75 3.54,50.78 3.39,56.80 3.34,60.57 3.29,64.33 3.50,67.08 3.71,69.83 3.70,69.78 3.69,69.73 3.62,70.19 3.56,70.66 3.38,71.10 3.20,71.53 2.92,71.92 2.65,72.30 2.29,72.60 1.93,72.91 1.50,73.12 1.08,73.33 0.62,73.43 0.16,73.53 -0.30,73.52 -0.77,73.51 -1.23,73.38 -1.69,73.26 -2.10,73.03 -2.51,72.80 -2.86,72.48 -3.20,72.16 -3.46,71.77 -3.72,71.37 -3.88,70.93 -4.03,70.48 -4.08,70.01 -4.13,69.54 -4.64,66.11 -5.16,62.69 -5.04,59.33 -4.91,55.97 -4.57,52.77 -4.23,49.58 -3.24,46.03 -2.26,42.49 -0.96,39.68 0.33,36.87 2.58,34.49 4.84,32.10 9.42,30.10 14.01,28.10 18.87,26.94 23.73,25.78 28.24,25.21 32.74,24.64 37.13,24.71 41.52,24.77 44.49,25.08 47.46,25.39 50.15,26.62 52.84,27.86 54.67,29.55 56.51,31.24 57.68,33.44 58.85,35.64 59.17,38.65 59.49,41.66 59.20,44.09 58.92,46.51 57.95,49.28 56.98,52.04 55.83,54.27 54.69,56.50 53.22,58.46 51.76,60.41 49.65,62.31 47.55,64.20 45.30,65.61 43.05,67.03 40.58,68.02 38.11,69.02 34.69,69.78 31.27,70.53 28.35,71.03 25.44,71.52 22.69,71.89 19.94,72.25 16.65,72.42 13.36,72.58 10.69,72.70 8.01,72.82 5.52,72.90 3.04,72.97 0.11,72.85 -2.81,72.73 -3.62,72.48 -4.43,72.23 -5.12,71.74 -5.81,71.24 -6.30,70.55 -6.79,69.87 -7.04,69.05 -7.29,68.24 -7.27,67.40 -7.24,66.55 -6.95,65.75 -6.66,64.96 -6.13,64.30 -5.59,63.64 -4.88,63.18 -4.16,62.73 -3.34,62.52 -2.52,62.32 -1.67,62.39 -0.83,62.46 -0.05,62.79 0.72,63.13 1.35,63.69 1.98,64.26 2.40,65.00 2.81,65.74 2.97,66.57 3.13,67.40 3.01,68.24 2.90,69.08 2.52,69.84 2.15,70.60 1.55,71.20 0.95,71.80 0.19,72.17 -0.56,72.55 -1.40,72.66 -2.24,72.78 -3.08,72.62 -3.91,72.46 -4.65,72.04 -5.38,71.62 -5.95,70.99 -6.52,70.36 -6.85,69.58 -7.18,68.80 -7.25,67.96 -7.32,67.11 -7.11,66.29 -6.91,65.47 -6.45,64.75 -5.99,64.04 -5.33,63.51 -4.67,62.98 -3.88,62.69 -3.08,62.39 -2.23,62.37 -1.39,62.35 -1.39,62.35 -1.39,62.35 0.73,62.43 2.86,62.51 5.25,62.50 7.63,62.49 10.13,62.42 12.63,62.35 15.59,62.07 18.55,61.79 21.09,61.46 23.62,61.12 26.16,60.66 28.70,60.21 33.12,58.89 37.54,57.58 40.53,55.60 43.53,53.62 45.53,51.00 47.53,48.38 48.74,45.13 49.94,41.89 49.97,39.35 49.99,36.82 48.04,34.67 46.09,32.52 43.79,31.93 41.49,31.34 37.64,31.39 33.80,31.43 29.75,32.20 25.71,32.98 21.62,34.28 17.53,35.58 12.89,38.35 8.24,41.13 7.15,42.99 6.06,44.85 5.25,47.74 4.44,50.63 4.06,53.51 3.68,56.40 3.49,59.31 3.31,62.22 3.50,65.97 3.69,69.73 3.62,70.19 3.56,70.66 3.38,71.10 3.20,71.53 2.92,71.92 2.65,72.30 2.29,72.60 1.93,72.91 1.50,73.12 1.08,73.33 0.62,73.43 0.16,73.53 -0.30,73.52 -0.77,73.51 -1.23,73.38 -1.68,73.26 -2.10,73.03 -2.51,72.80 -2.86,72.48 -3.20,72.16 -3.46,71.77 -3.72,71.37 -3.88,70.93 -4.03,70.48 -4.08,70.01 -4.13,69.54 -3.90,69.18 -3.68,68.82 -3.35,66.49 -3.01,64.16 -2.85,60.44 -2.69,56.73 -2.69,50.74 -2.70,44.75 -2.81,35.34 -2.93,25.92 -3.09,18.11 -3.24,10.30 -3.66,5.24 -4.08,0.18 -4.04,-0.31 -4.01,-0.80 -3.85,-1.27 -3.70,-1.73 -3.43,-2.15 -3.17,-2.57 -2.82,-2.91 -2.46,-3.26 -2.04,-3.50 -1.61,-3.75 -1.14,-3.89 -0.67,-4.03 -0.17,-4.05 0.31,-4.07 0.79,-3.98 1.28,-3.88 1.72,-3.67 2.17,-3.46 2.55,-3.15 2.93,-2.84 3.23,-2.45 3.53,-2.05 3.72,-1.60 3.92,-1.15 4.00,-0.66 4.08,-0.17 4.08,-0.17 L 4.08,-0.18 Z"></path></g><g transform="translate(366.8749694824219 37.978515625) rotate(0 -14.573516845703125 30.724288940429688)" stroke="none"><path fill="#d3d3d3" d="M 4.07,-0.11 Q 4.07,-0.11 4.02,5.00 3.98,10.12 4.05,16.22 4.11,22.32 4.39,29.93 4.68,37.55 4.91,42.78 5.15,48.02 5.46,51.51 5.77,54.99 6.32,57.28 6.87,59.58 7.04,60.29 7.20,61.00 7.17,61.50 7.15,62.00 7.00,62.47 6.86,62.95 6.60,63.38 6.34,63.80 5.99,64.16 5.64,64.51 5.22,64.77 4.80,65.03 4.32,65.18 3.85,65.33 3.35,65.36 2.85,65.39 2.36,65.31 1.87,65.22 1.42,65.02 0.96,64.82 0.57,64.51 0.18,64.21 -0.12,63.82 -0.43,63.43 -0.64,62.97 -0.84,62.52 -0.93,62.03 -1.03,61.54 -1.38,59.00 -1.74,56.46 -2.32,53.99 -2.90,51.53 -3.68,48.06 -4.46,44.59 -5.84,39.74 -7.23,34.90 -8.52,31.56 -9.81,28.23 -10.99,26.33 -12.16,24.43 -14.46,23.68 -16.76,22.93 -20.52,23.75 -24.28,24.56 -24.95,27.33 -25.61,30.11 -25.47,34.03 -25.33,37.95 -25.13,41.10 -24.92,44.24 -22.92,45.44 -20.92,46.65 -18.40,48.04 -15.88,49.43 -13.14,50.66 -10.39,51.89 -7.78,52.76 -5.17,53.63 -1.93,54.19 1.31,54.75 1.93,55.00 2.54,55.26 3.08,55.66 3.61,56.06 4.04,56.58 4.47,57.09 4.75,57.69 5.04,58.30 5.18,58.95 5.32,59.61 5.29,60.27 5.27,60.94 5.09,61.58 4.91,62.23 4.57,62.81 4.24,63.39 3.78,63.87 3.32,64.36 2.76,64.72 2.20,65.08 1.56,65.29 0.93,65.51 0.26,65.56 -0.39,65.62 -1.05,65.52 -1.71,65.41 0.60,65.03 2.93,64.65 2.12,65.03 1.30,65.42 0.41,65.52 -0.47,65.62 -1.35,65.43 -2.22,65.24 -3.00,64.78 -3.77,64.32 -4.35,63.64 -4.93,62.96 -5.27,62.13 -5.61,61.30 -5.66,60.40 -5.71,59.51 -5.48,58.64 -5.24,57.78 -4.74,57.03 -4.24,56.29 -3.53,55.74 -2.82,55.19 -1.97,54.90 -1.12,54.61 -0.22,54.61 0.66,54.60 1.52,54.89 2.37,55.17 3.08,55.71 3.80,56.25 4.31,56.99 4.82,57.73 5.06,58.59 5.30,59.45 5.26,60.35 5.21,61.25 4.89,62.08 4.56,62.92 3.98,63.60 3.40,64.29 2.64,64.76 1.87,65.22 0.99,65.42 0.12,65.62 -0.76,65.52 -1.66,65.43 -2.47,65.06 -3.29,64.68 -3.94,64.07 -4.60,63.46 -5.02,62.67 -5.44,61.87 -5.59,60.99 -5.74,60.11 -5.60,59.22 -5.46,58.33 -5.04,57.54 -4.63,56.74 -1.65,55.74 1.31,54.75 1.92,55.00 2.54,55.26 3.08,55.66 3.61,56.06 4.04,56.58 4.46,57.09 4.75,57.69 5.04,58.30 5.18,58.95 5.32,59.61 5.29,60.27 5.27,60.94 5.09,61.58 4.91,62.23 4.57,62.81 4.24,63.39 3.78,63.87 3.32,64.36 2.76,64.72 2.20,65.08 1.56,65.29 0.93,65.51 0.26,65.56 -0.39,65.62 -1.05,65.52 -1.71,65.41 -5.04,64.68 -8.36,63.94 -11.42,63.05 -14.47,62.17 -17.73,61.02 -20.98,59.87 -24.20,58.46 -27.42,57.04 -30.17,55.33 -32.92,53.63 -34.77,50.64 -36.63,47.66 -36.89,44.90 -37.15,42.15 -37.14,38.30 -37.12,34.46 -37.20,30.91 -37.28,27.36 -37.16,24.75 -37.05,22.13 -35.28,19.89 -33.51,17.65 -29.97,16.33 -26.43,15.02 -23.22,14.37 -20.01,13.71 -17.02,13.86 -14.03,14.01 -11.54,15.11 -9.04,16.22 -7.01,18.29 -4.99,20.36 -3.82,22.86 -2.64,25.36 -1.20,28.87 0.23,32.39 2.15,37.39 4.07,42.38 5.12,46.00 6.17,49.62 6.75,52.69 7.33,55.76 7.27,58.38 7.20,61.00 7.17,61.50 7.15,62.00 7.00,62.47 6.86,62.95 6.60,63.38 6.35,63.80 6.00,64.16 5.64,64.51 5.22,64.77 4.80,65.03 4.32,65.18 3.85,65.33 3.35,65.36 2.85,65.39 2.36,65.31 1.87,65.22 1.42,65.02 0.96,64.82 0.57,64.51 0.18,64.21 -0.12,63.82 -0.43,63.43 -0.64,62.97 -0.84,62.52 -0.93,62.03 -1.03,61.54 -0.95,60.92 -0.88,60.29 -0.79,57.83 -0.70,55.38 -0.80,51.88 -0.91,48.38 -1.30,43.13 -1.69,37.87 -2.18,30.21 -2.68,22.55 -3.03,16.44 -3.38,10.33 -3.73,5.22 -4.07,0.11 -4.02,-0.37 -3.98,-0.85 -3.82,-1.32 -3.66,-1.78 -3.39,-2.19 -3.12,-2.61 -2.76,-2.94 -2.41,-3.28 -1.98,-3.52 -1.55,-3.76 -1.08,-3.89 -0.60,-4.02 -0.11,-4.04 0.37,-4.05 0.85,-3.95 1.33,-3.84 1.77,-3.63 2.21,-3.41 2.59,-3.10 2.96,-2.78 3.26,-2.39 3.55,-1.99 3.73,-1.54 3.92,-1.08 3.99,-0.60 4.07,-0.11 4.07,-0.11 L 4.07,-0.11 Z"></path></g><g transform="translate(410.9798278808594 68.26498413085938) rotate(0 10.978179931640625 24.619140625)" stroke="none"><path fill="#d3d3d3" d="M 1.38,4.00 Q 1.38,4.00 -5.09,6.01 -11.57,8.03 -15.85,9.73 -20.12,11.43 -22.83,13.33 -25.55,15.22 -26.65,17.32 -27.76,19.42 -28.33,22.11 -28.90,24.80 -28.99,28.65 -29.09,32.50 -28.70,35.50 -28.31,38.51 -27.34,41.07 -26.36,43.64 -22.80,43.69 -19.24,43.73 -16.75,42.80 -14.27,41.87 -12.70,39.58 -11.13,37.29 -9.99,34.64 -8.85,31.99 -7.75,29.00 -6.64,26.00 -4.95,21.80 -3.25,17.61 -1.87,14.05 -0.48,10.49 0.43,7.77 1.34,5.04 2.02,2.48 2.70,-0.08 2.78,-0.34 2.86,-0.59 3.11,-1.12 3.37,-1.65 3.74,-2.10 4.11,-2.55 4.58,-2.89 5.05,-3.24 5.59,-3.47 6.13,-3.69 6.71,-3.78 7.29,-3.87 7.87,-3.82 8.45,-3.77 9.01,-3.58 9.56,-3.39 10.05,-3.07 10.54,-2.76 10.95,-2.33 11.35,-1.91 11.64,-1.40 11.92,-0.89 12.08,-0.33 12.24,0.22 12.26,0.81 12.28,1.39 12.16,1.97 12.04,2.54 14.89,7.19 17.74,11.84 19.30,13.97 20.86,16.09 22.62,17.34 24.37,18.59 28.13,19.40 31.90,20.21 35.49,20.50 39.08,20.79 42.12,20.64 45.15,20.49 47.89,19.98 50.63,19.48 52.83,19.00 55.04,18.52 55.81,18.51 56.58,18.50 57.32,18.74 58.05,18.98 58.67,19.44 59.29,19.91 59.73,20.54 60.17,21.18 60.38,21.92 60.60,22.66 60.56,23.43 60.53,24.21 60.25,24.93 59.97,25.65 59.48,26.24 58.98,26.83 58.32,27.24 57.66,27.64 56.91,27.82 56.16,27.99 55.39,27.91 54.62,27.84 53.92,27.52 53.21,27.20 52.65,26.68 52.08,26.15 51.71,25.47 51.34,24.79 51.21,24.03 51.08,23.27 51.20,22.51 51.31,21.74 51.67,21.06 52.03,20.37 52.58,19.83 53.14,19.30 53.84,18.97 54.53,18.63 55.30,18.54 56.07,18.45 56.82,18.61 57.58,18.77 58.25,19.16 58.91,19.56 59.42,20.14 59.92,20.72 60.22,21.44 60.51,22.15 60.56,22.92 60.61,23.70 60.41,24.44 60.21,25.19 59.78,25.83 59.35,26.48 58.74,26.95 58.13,27.42 57.40,27.68 56.67,27.93 56.67,27.93 56.67,27.93 54.44,28.22 52.20,28.51 48.93,29.05 45.67,29.59 42.26,29.80 38.85,30.01 34.59,30.10 30.34,30.20 27.18,29.60 24.01,29.00 21.20,27.67 18.39,26.34 15.73,24.12 13.07,21.89 11.22,19.34 9.38,16.79 7.16,13.40 4.93,10.01 4.01,7.71 3.10,5.42 2.98,2.41 2.86,-0.59 3.11,-1.12 3.37,-1.65 3.74,-2.10 4.11,-2.55 4.58,-2.89 5.05,-3.24 5.59,-3.47 6.13,-3.69 6.71,-3.78 7.29,-3.87 7.87,-3.82 8.45,-3.77 9.01,-3.58 9.56,-3.39 10.05,-3.07 10.54,-2.76 10.94,-2.33 11.35,-1.91 11.64,-1.40 11.92,-0.89 12.08,-0.33 12.24,0.22 12.26,0.81 12.28,1.39 12.16,1.96 12.04,2.54 11.88,2.77 11.73,3.01 10.59,5.50 9.44,8.00 8.39,10.65 7.34,13.30 6.19,16.82 5.04,20.33 3.90,24.75 2.77,29.16 1.77,32.46 0.76,35.77 -0.62,39.57 -2.01,43.37 -3.71,45.68 -5.41,48.00 -7.62,49.73 -9.82,51.45 -12.65,52.50 -15.47,53.55 -17.77,53.62 -20.07,53.69 -22.53,53.35 -25.00,53.01 -28.01,51.92 -31.02,50.82 -33.17,47.15 -35.33,43.48 -35.53,41.35 -35.73,39.21 -35.94,35.86 -36.15,32.51 -36.26,27.70 -36.37,22.88 -35.23,19.13 -34.09,15.39 -31.88,12.46 -29.66,9.54 -26.30,7.29 -22.94,5.05 -18.50,2.94 -14.06,0.83 -7.72,-1.58 -1.38,-4.00 -0.88,-4.10 -0.38,-4.21 0.12,-4.20 0.63,-4.18 1.12,-4.04 1.61,-3.91 2.06,-3.66 2.50,-3.41 2.87,-3.06 3.25,-2.71 3.52,-2.28 3.80,-1.85 3.97,-1.37 4.13,-0.89 4.18,-0.38 4.23,0.12 4.15,0.63 4.07,1.13 3.88,1.60 3.68,2.07 3.38,2.48 3.08,2.90 2.69,3.22 2.30,3.55 1.84,3.77 1.38,4.00 1.38,4.00 L 1.38,4.00 Z"></path></g><g transform="translate(528.0599060058594 10) rotate(0 -9.79168701171875 55.71452331542969)" stroke="none"><path fill="#d3d3d3" d="M 2.85,2.00 Q 2.85,2.00 -1.13,7.49 -5.12,12.99 -8.88,18.87 -12.64,24.75 -16.04,32.27 -19.44,39.80 -21.24,46.07 -23.05,52.34 -23.74,57.55 -24.44,62.76 -24.16,68.00 -23.88,73.25 -23.19,76.88 -22.50,80.52 -20.94,83.43 -19.38,86.34 -17.32,88.55 -15.26,90.77 -12.49,92.99 -9.71,95.21 -5.94,97.87 -2.16,100.52 0.55,102.21 3.27,103.90 6.90,105.91 10.53,107.92 11.04,108.26 11.56,108.61 11.94,109.10 12.32,109.60 12.53,110.19 12.73,110.77 12.73,111.40 12.74,112.02 12.54,112.61 12.35,113.20 11.97,113.70 11.60,114.20 11.09,114.55 10.57,114.91 9.98,115.08 9.38,115.25 8.75,115.22 8.13,115.19 7.55,114.96 6.97,114.74 6.49,114.34 6.02,113.94 5.69,113.41 5.37,112.87 5.23,112.27 5.09,111.66 5.15,111.04 5.22,110.42 5.47,109.85 5.73,109.29 6.16,108.83 6.58,108.38 7.13,108.08 7.68,107.78 8.29,107.68 8.91,107.57 9.52,107.67 10.14,107.77 10.69,108.06 11.24,108.34 11.67,108.79 12.11,109.24 12.37,109.81 12.64,110.37 12.71,110.99 12.78,111.61 12.65,112.22 12.52,112.82 12.20,113.36 11.89,113.90 11.41,114.30 10.94,114.71 10.36,114.94 9.79,115.18 9.17,115.22 8.54,115.25 7.94,115.09 7.34,114.93 7.34,114.93 7.34,114.93 3.39,112.22 -0.55,109.52 -3.10,107.60 -5.66,105.69 -9.77,103.01 -13.88,100.33 -17.10,97.67 -20.32,95.01 -22.59,92.02 -24.87,89.04 -26.53,85.29 -28.18,81.54 -28.78,77.54 -29.38,73.54 -29.69,67.80 -30.00,62.05 -29.28,56.42 -28.57,50.78 -26.71,44.09 -24.85,37.40 -21.36,29.45 -17.88,21.49 -14.17,15.37 -10.46,9.25 -6.65,3.62 -2.85,-2.00 -2.57,-2.31 -2.29,-2.62 -1.94,-2.86 -1.59,-3.10 -1.20,-3.24 -0.81,-3.39 -0.39,-3.44 0.02,-3.48 0.44,-3.43 0.85,-3.38 1.25,-3.22 1.64,-3.07 1.98,-2.83 2.33,-2.59 2.60,-2.27 2.88,-1.96 3.07,-1.58 3.27,-1.21 3.36,-0.80 3.46,-0.39 3.46,0.02 3.46,0.44 3.35,0.85 3.25,1.26 3.05,1.63 2.85,2.00 2.85,2.00 L 2.85,2.00 Z"></path></g><g transform="translate(565.3774719238281 47.744140625) rotate(0 15.651153564453125 22.805999755859375)" stroke="none"><path fill="#d3d3d3" d="M 3.30,3.20 Q 3.30,3.20 -1.25,7.54 -5.81,11.88 -8.46,15.17 -11.11,18.47 -12.57,21.82 -14.04,25.18 -14.48,27.67 -14.92,30.17 -14.82,32.98 -14.72,35.79 -11.94,36.52 -9.17,37.25 -4.85,38.40 -0.54,39.54 3.36,40.21 7.27,40.87 10.59,40.93 13.91,40.99 16.03,40.09 18.15,39.18 18.47,36.62 18.80,34.05 19.16,31.44 19.51,28.83 19.89,25.10 20.26,21.37 20.29,18.60 20.31,15.84 19.83,13.38 19.35,10.92 21.48,12.22 23.61,13.53 25.11,11.77 26.60,10.01 28.87,14.16 31.13,18.32 33.25,21.73 35.38,25.14 37.92,28.07 40.46,30.99 43.09,33.08 45.72,35.17 49.57,37.21 53.43,39.25 53.93,39.75 54.44,40.24 54.75,40.88 55.07,41.51 55.17,42.21 55.27,42.91 55.14,43.60 55.01,44.30 54.67,44.92 54.32,45.53 53.80,46.01 53.27,46.48 52.63,46.77 51.98,47.05 51.27,47.11 50.57,47.17 49.88,47.01 49.19,46.84 48.60,46.46 48.00,46.08 47.55,45.53 47.11,44.99 46.86,44.32 46.61,43.66 46.59,42.95 46.57,42.25 46.77,41.57 46.97,40.89 47.38,40.32 47.79,39.74 48.36,39.32 48.94,38.91 49.61,38.70 50.29,38.49 50.99,38.50 51.70,38.52 52.37,38.76 53.03,39.00 53.58,39.44 54.14,39.88 54.52,40.47 54.91,41.07 55.08,41.75 55.25,42.44 55.20,43.14 55.15,43.85 54.87,44.50 54.60,45.15 54.13,45.68 53.66,46.21 53.04,46.56 52.43,46.91 51.74,47.05 51.04,47.18 50.34,47.09 49.64,47.00 49.00,46.69 48.37,46.38 48.37,46.38 48.37,46.38 46.33,45.34 44.30,44.29 42.53,42.92 40.76,41.54 37.65,39.15 34.54,36.77 31.24,33.71 27.95,30.64 25.08,27.28 22.20,23.93 19.15,19.19 16.10,14.46 16.14,11.35 16.19,8.23 17.94,6.39 19.70,4.54 23.08,4.72 26.47,4.89 27.97,8.28 29.47,11.66 29.48,13.87 29.49,16.08 29.37,18.92 29.24,21.76 29.27,25.98 29.30,30.20 28.84,33.39 28.39,36.59 27.47,39.44 26.56,42.29 24.77,44.53 22.98,46.78 20.90,47.66 18.82,48.55 16.31,48.78 13.81,49.02 10.07,48.97 6.34,48.93 2.02,48.63 -2.28,48.34 -7.55,47.58 -12.82,46.82 -15.47,45.68 -18.12,44.55 -20.73,41.40 -23.34,38.25 -23.30,35.60 -23.26,32.95 -22.77,30.65 -22.28,28.35 -21.38,25.42 -20.48,22.48 -18.78,18.31 -17.08,14.13 -14.38,10.17 -11.68,6.21 -7.49,1.50 -3.30,-3.20 -2.87,-3.54 -2.44,-3.89 -1.94,-4.13 -1.44,-4.37 -0.89,-4.48 -0.35,-4.58 0.19,-4.56 0.75,-4.54 1.28,-4.38 1.81,-4.22 2.29,-3.94 2.77,-3.67 3.17,-3.28 3.57,-2.89 3.87,-2.42 4.16,-1.95 4.33,-1.43 4.51,-0.90 4.55,-0.35 4.59,0.20 4.50,0.74 4.41,1.29 4.19,1.80 3.97,2.31 3.64,2.75 3.30,3.20 3.30,3.20 L 3.30,3.20 Z"></path></g><g transform="translate(645.8918762207031 27.2265625) rotate(0 23.22265625 34.80143737792969)" stroke="none"><path fill="#d3d3d3" d="M 4.24,0.28 Q 4.24,0.28 3.36,10.07 2.48,19.87 1.96,25.86 1.45,31.86 1.10,37.20 0.76,42.54 0.58,46.87 0.40,51.20 0.58,53.42 0.76,55.64 0.94,57.02 1.13,58.39 1.06,58.86 1.00,59.33 0.82,59.77 0.64,60.22 0.37,60.60 0.09,60.99 -0.26,61.30 -0.62,61.61 -1.05,61.83 -1.47,62.04 -1.94,62.15 -2.40,62.25 -2.88,62.25 -3.35,62.24 -3.81,62.12 -4.27,62.00 -4.69,61.77 -5.11,61.54 -5.46,61.22 -5.81,60.90 -6.08,60.50 -6.34,60.10 -6.50,59.66 -6.66,59.21 -6.71,58.73 -6.76,58.26 -6.31,55.95 -5.86,53.63 -3.27,49.59 -0.67,45.54 1.67,43.39 4.01,41.24 6.79,39.31 9.56,37.38 13.18,35.77 16.81,34.16 19.94,33.22 23.06,32.28 27.05,32.21 31.04,32.15 34.01,32.54 36.97,32.92 39.31,33.53 41.65,34.15 43.88,35.32 46.12,36.49 47.90,38.07 49.68,39.66 51.15,42.15 52.62,44.65 53.14,48.99 53.67,53.33 53.45,56.82 53.23,60.31 52.50,63.23 51.78,66.14 49.70,69.44 47.63,72.73 45.20,73.61 42.77,74.50 40.44,74.73 38.10,74.96 34.90,74.95 31.71,74.94 27.24,74.31 22.77,73.68 19.27,73.19 15.77,72.71 12.65,72.15 9.53,71.59 6.70,71.11 3.87,70.62 4.37,70.29 4.88,69.96 4.31,69.71 3.75,69.47 3.26,69.10 2.77,68.73 2.39,68.25 2.00,67.78 1.74,67.22 1.48,66.67 1.36,66.07 1.24,65.46 1.27,64.85 1.30,64.24 1.47,63.65 1.64,63.06 1.95,62.53 2.26,62.00 2.69,61.56 3.11,61.12 3.63,60.80 4.15,60.47 4.73,60.28 5.32,60.09 5.93,60.04 6.54,60.00 7.14,60.10 7.75,60.20 8.24,60.40 8.72,60.60 9.37,61.10 10.03,61.60 10.48,62.28 10.94,62.97 11.16,63.76 11.37,64.56 11.32,65.38 11.27,66.20 10.96,66.96 10.66,67.72 10.12,68.35 9.58,68.97 8.88,69.39 8.17,69.81 7.36,69.98 6.56,70.16 5.74,70.06 4.92,69.97 4.18,69.62 3.43,69.27 2.84,68.70 2.25,68.13 1.87,67.40 1.48,66.67 1.36,65.86 1.23,65.05 1.37,64.24 1.50,63.42 1.89,62.70 2.28,61.97 2.88,61.41 3.48,60.85 4.23,60.51 4.98,60.17 5.80,60.08 6.62,60.00 7.42,60.18 8.22,60.36 8.93,60.79 9.63,61.22 10.16,61.85 10.69,62.48 10.99,63.25 11.29,64.01 11.33,64.83 11.37,65.66 11.14,66.45 10.92,67.24 10.45,67.92 9.98,68.60 9.33,69.09 8.67,69.58 7.89,69.84 7.11,70.10 6.28,70.10 5.46,70.09 5.17,70.02 4.88,69.96 4.32,69.71 3.75,69.47 3.26,69.10 2.77,68.73 2.39,68.25 2.00,67.78 1.74,67.22 1.48,66.67 1.36,66.07 1.24,65.46 1.27,64.85 1.30,64.24 1.47,63.65 1.64,63.06 1.95,62.53 2.26,62.00 2.69,61.56 3.11,61.12 3.63,60.80 4.15,60.47 4.73,60.28 5.32,60.09 5.93,60.04 6.54,60.00 7.14,60.10 7.75,60.20 7.26,60.61 6.77,61.01 8.98,61.76 11.18,62.51 14.03,63.04 16.89,63.58 20.12,63.91 23.36,64.24 27.41,64.14 31.46,64.05 36.26,64.48 41.07,64.92 42.19,62.27 43.31,59.62 43.49,57.05 43.66,54.48 43.36,51.90 43.07,49.32 41.94,47.18 40.82,45.05 38.12,43.56 35.43,42.07 33.27,41.60 31.11,41.12 28.29,41.13 25.47,41.14 23.03,41.76 20.60,42.39 17.77,43.77 14.94,45.14 12.64,46.75 10.33,48.36 8.42,49.99 6.51,51.62 5.03,53.21 3.55,54.80 2.34,56.59 1.13,58.39 1.06,58.86 1.00,59.33 0.82,59.77 0.65,60.22 0.37,60.60 0.09,60.99 -0.26,61.30 -0.62,61.61 -1.05,61.83 -1.47,62.04 -1.94,62.15 -2.40,62.25 -2.88,62.25 -3.35,62.24 -3.81,62.12 -4.27,62.00 -4.69,61.77 -5.11,61.54 -5.46,61.22 -5.81,60.90 -6.08,60.50 -6.34,60.10 -6.50,59.66 -6.66,59.21 -6.71,58.73 -6.76,58.26 -6.53,56.89 -6.29,55.51 -6.03,53.29 -5.77,51.06 -5.76,46.66 -5.75,42.27 -5.64,36.86 -5.53,31.44 -5.33,25.40 -5.14,19.35 -4.69,9.53 -4.24,-0.28 -4.14,-0.79 -4.05,-1.29 -3.83,-1.76 -3.62,-2.22 -3.30,-2.62 -2.98,-3.02 -2.57,-3.34 -2.17,-3.65 -1.70,-3.86 -1.23,-4.06 -0.73,-4.15 -0.22,-4.24 0.28,-4.21 0.79,-4.17 1.28,-4.02 1.77,-3.86 2.21,-3.59 2.64,-3.32 3.00,-2.96 3.36,-2.59 3.62,-2.15 3.89,-1.71 4.03,-1.22 4.18,-0.73 4.21,-0.22 4.24,0.28 4.24,0.28 L 4.24,0.28 Z"></path></g><g transform="translate(788.5287170410156 46.412750244140625) rotate(0 -27.0833740234375 22.841781616210938)" stroke="none"><path fill="#d3d3d3" d="M 1.04,4.38 Q 1.04,4.38 -8.87,6.49 -18.79,8.60 -25.87,10.29 -32.96,11.99 -38.00,13.45 -43.05,14.92 -45.55,15.97 -48.06,17.01 -47.45,19.85 -46.84,22.69 -45.47,25.26 -44.10,27.82 -41.64,30.95 -39.18,34.08 -36.77,36.02 -34.35,37.97 -30.58,39.17 -26.81,40.37 -22.70,40.08 -18.59,39.80 -12.67,41.37 -6.75,42.95 -6.59,43.76 -6.43,44.57 -6.53,45.38 -6.63,46.20 -6.99,46.95 -7.35,47.69 -7.92,48.28 -8.50,48.87 -9.24,49.25 -9.97,49.62 -10.79,49.74 -11.61,49.86 -12.42,49.72 -13.23,49.57 -13.96,49.17 -14.68,48.77 -15.24,48.17 -15.79,47.56 -16.13,46.80 -16.46,46.05 -16.54,45.23 -16.62,44.40 -16.43,43.60 -16.24,42.80 -15.80,42.10 -15.36,41.39 -14.72,40.87 -14.09,40.35 -13.31,40.05 -12.54,39.76 -11.72,39.73 -10.89,39.70 -10.10,39.93 -9.31,40.16 -8.63,40.64 -7.96,41.11 -7.47,41.78 -6.98,42.44 -6.73,43.23 -6.48,44.02 -6.49,44.84 -6.50,45.67 -6.78,46.45 -7.05,47.22 -7.57,47.87 -8.08,48.52 -8.77,48.97 -9.46,49.43 -10.26,49.63 -11.06,49.84 -11.88,49.78 -12.70,49.73 -13.46,49.41 -14.23,49.09 -14.85,48.55 -15.47,48.00 -15.88,47.29 -16.30,46.57 -16.30,46.57 -16.30,46.57 -17.11,48.04 -17.92,49.50 -20.77,49.63 -23.63,49.76 -26.27,49.50 -28.92,49.23 -31.92,48.33 -34.91,47.42 -37.23,45.90 -39.56,44.38 -42.48,41.98 -45.41,39.58 -48.87,35.97 -52.33,32.37 -54.08,29.20 -55.84,26.04 -56.75,23.31 -57.67,20.58 -56.72,16.42 -55.77,12.26 -53.13,11.15 -50.50,10.04 -47.79,9.27 -45.09,8.50 -39.96,6.72 -34.83,4.95 -27.74,2.87 -20.65,0.79 -10.85,-1.79 -1.04,-4.38 -0.50,-4.44 0.03,-4.50 0.57,-4.43 1.11,-4.36 1.61,-4.17 2.12,-3.97 2.57,-3.66 3.01,-3.34 3.37,-2.93 3.72,-2.53 3.97,-2.04 4.22,-1.56 4.35,-1.03 4.47,-0.50 4.47,0.03 4.46,0.57 4.33,1.10 4.20,1.63 3.94,2.11 3.68,2.58 3.32,2.99 2.96,3.39 2.51,3.70 2.06,4.00 1.55,4.19 1.04,4.38 1.04,4.38 L 1.04,4.38 Z"></path></g><g transform="translate(842.5943908691406 18.694671630859375) rotate(0 4.48895263671875 56.44856262207031)" stroke="none"><path fill="#d3d3d3" d="M 3.01,-1.65 Q 3.01,-1.65 6.56,5.03 10.10,11.71 13.77,21.18 17.44,30.64 20.44,40.68 23.44,50.71 25.00,56.84 26.55,62.97 27.27,66.76 27.98,70.55 27.10,74.58 26.23,78.60 24.13,82.13 22.03,85.65 19.06,88.91 16.08,92.16 11.53,96.07 6.98,99.98 3.17,102.88 -0.63,105.78 -4.14,108.16 -7.66,110.54 -9.53,112.04 -11.41,113.54 -12.81,113.99 -14.21,114.45 -14.63,114.63 -15.05,114.81 -15.50,114.89 -15.95,114.96 -16.41,114.93 -16.86,114.90 -17.30,114.75 -17.73,114.61 -18.12,114.37 -18.51,114.13 -18.83,113.80 -19.15,113.47 -19.38,113.08 -19.61,112.68 -19.74,112.24 -19.87,111.81 -19.89,111.35 -19.91,110.89 -19.82,110.44 -19.73,110.00 -19.54,109.58 -19.35,109.17 -19.06,108.81 -18.77,108.45 -18.41,108.18 -18.05,107.90 -18.23,108.02 -18.42,108.15 -17.87,107.86 -17.33,107.58 -16.72,107.48 -16.12,107.38 -15.51,107.48 -14.91,107.58 -14.37,107.87 -13.82,108.16 -13.40,108.61 -12.98,109.05 -12.73,109.61 -12.47,110.17 -12.41,110.78 -12.34,111.39 -12.47,111.99 -12.61,112.59 -12.92,113.11 -13.24,113.64 -13.71,114.03 -14.18,114.43 -14.75,114.65 -15.32,114.88 -15.93,114.91 -16.55,114.94 -17.14,114.78 -17.73,114.61 -18.24,114.27 -18.74,113.92 -19.11,113.43 -19.48,112.94 -19.68,112.36 -19.87,111.78 -19.87,111.16 -19.87,110.55 -19.67,109.97 -19.48,109.39 -19.10,108.90 -18.73,108.41 -18.22,108.07 -17.71,107.73 -17.12,107.56 -16.53,107.40 -15.92,107.44 -15.30,107.47 -14.73,107.70 -14.16,107.93 -13.70,108.33 -13.23,108.73 -12.91,109.25 -12.60,109.78 -12.47,110.38 -12.34,110.98 -12.41,111.59 -12.48,112.20 -12.73,112.75 -12.99,113.31 -13.60,113.88 -14.21,114.45 -14.63,114.63 -15.05,114.81 -15.50,114.89 -15.95,114.96 -16.41,114.93 -16.86,114.90 -17.30,114.75 -17.73,114.61 -18.12,114.37 -18.51,114.13 -18.83,113.80 -19.15,113.47 -19.38,113.08 -19.61,112.68 -19.74,112.25 -19.87,111.81 -19.89,111.35 -19.91,110.89 -19.82,110.44 -19.73,110.00 -19.54,109.58 -19.35,109.17 -19.06,108.81 -18.77,108.45 -18.41,108.18 -18.05,107.90 -16.57,107.90 -15.09,107.91 -13.01,106.83 -10.93,105.75 -7.58,103.45 -4.24,101.15 -0.64,98.27 2.96,95.39 7.13,91.64 11.30,87.88 13.84,84.96 16.38,82.04 18.19,79.42 20.00,76.80 20.99,74.05 21.98,71.30 21.50,67.86 21.02,64.41 19.42,58.42 17.82,52.43 14.78,42.66 11.75,32.89 8.10,23.85 4.45,14.81 0.71,8.23 -3.01,1.65 -3.17,1.27 -3.32,0.88 -3.38,0.47 -3.44,0.06 -3.40,-0.34 -3.35,-0.76 -3.21,-1.15 -3.07,-1.54 -2.84,-1.89 -2.61,-2.23 -2.31,-2.51 -2.00,-2.79 -1.64,-2.99 -1.28,-3.19 -0.87,-3.30 -0.47,-3.41 -0.06,-3.41 0.35,-3.42 0.75,-3.33 1.16,-3.24 1.53,-3.05 1.90,-2.86 2.22,-2.60 2.53,-2.33 2.77,-1.99 3.02,-1.65 3.01,-1.65 L 3.01,-1.65 Z"></path></g><g transform="translate(327.0507507324219 207.119140625) rotate(0 -6.59014892578125 46.748046875)" stroke="none"><path fill="#d3d3d3" d="M 3.19,1.84 Q 3.19,1.84 0.62,6.00 -1.94,10.15 -4.69,16.53 -7.43,22.91 -9.45,28.50 -11.48,34.09 -12.71,38.74 -13.94,43.40 -14.61,48.02 -15.28,52.64 -15.39,56.19 -15.49,59.75 -15.07,62.78 -14.65,65.81 -13.69,69.20 -12.72,72.59 -11.45,75.13 -10.17,77.66 -8.36,79.89 -6.56,82.11 -4.89,83.60 -3.22,85.09 -1.11,86.45 0.99,87.81 2.85,89.23 4.71,90.66 4.56,90.34 4.42,90.02 4.77,90.51 5.13,91.00 5.36,91.56 5.58,92.12 5.67,92.72 5.76,93.32 5.70,93.92 5.64,94.52 5.44,95.10 5.24,95.67 4.91,96.17 4.58,96.68 4.13,97.09 3.69,97.50 3.16,97.80 2.63,98.09 2.05,98.25 1.46,98.41 0.86,98.42 0.25,98.44 -0.33,98.31 -0.92,98.18 -1.46,97.91 -2.01,97.64 -2.47,97.25 -2.93,96.86 -2.60,97.23 -2.27,97.60 -2.82,97.31 -3.38,97.02 -3.85,96.60 -4.32,96.19 -4.68,95.67 -5.04,95.16 -5.26,94.57 -5.48,93.98 -5.56,93.36 -5.64,92.74 -5.56,92.11 -5.49,91.49 -5.27,90.90 -5.05,90.31 -4.69,89.80 -4.33,89.28 -3.86,88.86 -3.40,88.44 -2.84,88.15 -2.28,87.86 -1.67,87.71 -1.06,87.55 -0.44,87.55 0.18,87.55 0.79,87.70 1.40,87.85 -0.80,88.12 -3.02,88.39 -0.60,88.08 1.80,87.76 5.94,88.47 10.07,89.19 10.56,89.95 11.05,90.71 11.27,91.59 11.50,92.47 11.43,93.38 11.35,94.28 11.00,95.12 10.64,95.96 10.04,96.63 9.44,97.31 8.65,97.76 7.86,98.21 6.97,98.39 6.08,98.56 5.18,98.44 4.28,98.32 3.46,97.92 2.65,97.52 2.00,96.88 1.36,96.24 0.95,95.43 0.54,94.62 0.42,93.72 0.29,92.82 0.46,91.93 0.63,91.03 1.07,90.24 1.52,89.45 2.19,88.84 2.86,88.23 3.70,87.87 4.53,87.51 5.43,87.43 6.34,87.36 7.22,87.57 8.10,87.79 8.87,88.27 9.64,88.76 10.21,89.47 10.78,90.17 11.10,91.02 11.41,91.87 11.44,92.78 11.47,93.69 11.20,94.56 10.94,95.43 10.41,96.17 9.89,96.91 9.15,97.44 8.41,97.97 7.55,98.24 6.68,98.51 5.77,98.49 4.86,98.47 4.01,98.16 3.16,97.85 2.45,97.28 1.74,96.71 1.74,96.71 1.74,96.71 4.23,96.40 6.72,96.08 4.45,96.57 2.17,97.05 -0.04,97.33 -2.27,97.60 -2.82,97.31 -3.38,97.02 -3.85,96.60 -4.32,96.19 -4.68,95.67 -5.04,95.16 -5.26,94.57 -5.48,93.98 -5.56,93.36 -5.64,92.74 -5.56,92.11 -5.49,91.49 -5.27,90.90 -5.05,90.31 -4.69,89.80 -4.33,89.28 -3.87,88.86 -3.40,88.44 -2.84,88.15 -2.28,87.86 -1.68,87.71 -1.07,87.55 -0.44,87.55 0.18,87.55 0.79,87.70 1.40,87.85 2.91,88.94 4.42,90.02 4.77,90.51 5.13,91.00 5.36,91.56 5.58,92.12 5.67,92.72 5.76,93.32 5.70,93.92 5.64,94.52 5.44,95.10 5.24,95.67 4.91,96.17 4.58,96.68 4.13,97.09 3.69,97.50 3.16,97.80 2.63,98.09 2.05,98.25 1.46,98.41 0.86,98.42 0.25,98.44 -0.33,98.31 -0.92,98.18 -1.46,97.91 -2.01,97.64 -2.47,97.25 -2.93,96.86 -3.66,96.08 -4.39,95.31 -6.73,93.01 -9.06,90.72 -10.82,88.66 -12.58,86.59 -14.65,83.59 -16.72,80.60 -17.93,77.48 -19.14,74.36 -20.20,70.38 -21.25,66.40 -21.40,62.91 -21.55,59.41 -21.23,55.64 -20.92,51.86 -20.26,46.91 -19.61,41.97 -18.41,37.03 -17.22,32.09 -15.27,26.28 -13.33,20.46 -10.58,13.60 -7.84,6.75 -5.51,2.45 -3.19,-1.84 -2.92,-2.20 -2.65,-2.56 -2.31,-2.84 -1.96,-3.12 -1.56,-3.31 -1.16,-3.50 -0.72,-3.59 -0.29,-3.67 0.15,-3.66 0.59,-3.64 1.02,-3.51 1.45,-3.39 1.83,-3.17 2.22,-2.94 2.54,-2.63 2.86,-2.33 3.09,-1.95 3.33,-1.57 3.47,-1.15 3.61,-0.73 3.65,-0.29 3.68,0.15 3.61,0.59 3.54,1.03 3.36,1.44 3.19,1.84 3.19,1.84 L 3.19,1.84 Z"></path></g><g transform="translate(366.8847961425781 231.69924926757812) rotate(0 0.9033203125 26.572250366210938)" stroke="none"><path fill="#d3d3d3" d="M 4.15,0 Q 4.15,0 3.94,4.41 3.74,8.83 3.59,14.98 3.44,21.13 3.55,26.79 3.66,32.46 3.97,37.28 4.27,42.10 4.64,44.79 5.01,47.47 5.16,50.25 5.32,53.04 5.24,53.60 5.17,54.17 4.91,54.68 4.66,55.19 4.26,55.59 3.86,55.99 3.35,56.25 2.84,56.50 2.28,56.58 1.71,56.66 1.15,56.55 0.59,56.44 0.10,56.16 -0.39,55.89 -0.77,55.46 -1.15,55.04 -1.38,54.52 -1.60,53.99 -1.65,53.43 -1.70,52.86 -1.56,52.31 -1.42,51.75 -1.12,51.27 -0.81,50.79 -0.37,50.44 0.06,50.08 0.60,49.88 1.13,49.69 1.70,49.67 2.27,49.65 2.82,49.82 3.36,49.99 3.82,50.32 4.29,50.65 4.62,51.11 4.95,51.57 5.12,52.12 5.29,52.66 5.27,53.23 5.26,53.80 5.06,54.33 4.87,54.87 4.51,55.31 4.16,55.75 3.68,56.06 3.20,56.37 2.64,56.51 2.09,56.65 1.53,56.60 0.96,56.55 0.43,56.33 -0.08,56.11 -0.50,55.73 -0.93,55.35 -1.21,54.85 -1.49,54.36 -1.60,53.80 -1.70,53.24 -1.70,53.24 -1.70,53.24 -1.80,50.57 -1.89,47.90 -1.85,45.25 -1.82,42.59 -2.29,37.65 -2.77,32.71 -3.11,26.92 -3.44,21.13 -3.59,14.98 -3.74,8.83 -3.94,4.41 -4.15,0 -4.09,-0.49 -4.03,-0.99 -3.85,-1.46 -3.67,-1.92 -3.39,-2.34 -3.10,-2.75 -2.73,-3.08 -2.35,-3.41 -1.91,-3.65 -1.47,-3.88 -0.98,-4.00 -0.50,-4.12 0.00,-4.12 0.50,-4.12 0.98,-4.00 1.47,-3.88 1.91,-3.64 2.35,-3.41 2.73,-3.08 3.10,-2.75 3.39,-2.34 3.67,-1.92 3.85,-1.46 4.03,-0.99 4.09,-0.49 4.15,0.00 4.15,0.00 L 4.15,0 Z"></path></g><g transform="translate(351.6797180175781 262.57489013671875) rotate(0 29.892578125 3.1591796875)" stroke="none"><path fill="#d3d3d3" d="M 0.28,-4.21 Q 0.28,-4.21 9.04,-3.41 17.80,-2.60 25.38,-1.59 32.97,-0.57 39.38,0.42 45.79,1.42 49.38,1.81 52.96,2.20 56.84,2.40 60.71,2.60 61.28,2.85 61.84,3.10 62.30,3.51 62.76,3.92 63.07,4.46 63.37,5.00 63.49,5.61 63.60,6.22 63.52,6.83 63.43,7.44 63.16,8.00 62.88,8.55 62.44,8.99 62.01,9.42 61.45,9.70 60.90,9.97 60.28,10.05 59.67,10.13 59.06,10.02 58.46,9.90 57.92,9.59 57.38,9.29 56.97,8.83 56.56,8.37 56.31,7.80 56.07,7.23 56.02,6.61 55.97,6.00 56.12,5.40 56.27,4.80 56.61,4.28 56.94,3.76 57.42,3.37 57.90,2.98 58.49,2.77 59.07,2.56 59.68,2.54 60.30,2.53 60.89,2.71 61.49,2.89 61.99,3.25 62.49,3.62 62.85,4.12 63.21,4.62 63.39,5.21 63.57,5.80 63.55,6.42 63.53,7.04 63.32,7.62 63.10,8.20 62.72,8.68 62.33,9.16 61.81,9.50 61.28,9.83 60.68,9.98 60.08,10.12 59.47,10.07 58.85,10.02 58.85,10.02 58.85,10.02 55.49,9.45 52.14,8.87 48.52,8.37 44.90,7.87 38.54,7.11 32.19,6.35 24.74,5.67 17.28,4.98 8.50,4.60 -0.28,4.21 -0.78,4.12 -1.28,4.02 -1.75,3.81 -2.21,3.60 -2.61,3.28 -3.01,2.96 -3.32,2.56 -3.63,2.16 -3.84,1.69 -4.04,1.22 -4.13,0.72 -4.22,0.22 -4.18,-0.28 -4.15,-0.79 -3.99,-1.27 -3.84,-1.76 -3.57,-2.19 -3.30,-2.63 -2.94,-2.99 -2.58,-3.34 -2.14,-3.60 -1.70,-3.86 -1.21,-4.01 -0.73,-4.16 -0.22,-4.19 0.28,-4.21 0.28,-4.21 L 0.28,-4.21 Z"></path></g><g transform="translate(442.2884216308594 257.59442138671875) rotate(0 17.74249267578125 28.759765625)" stroke="none"><path fill="#d3d3d3" d="M 2.23,2.93 Q 2.23,2.93 -1.26,5.41 -4.76,7.89 -7.48,10.40 -10.19,12.90 -11.82,16.24 -13.44,19.57 -13.77,23.12 -14.10,26.66 -12.55,31.40 -11.00,36.14 -8.89,39.91 -6.79,43.69 -4.34,46.30 -1.90,48.91 0.81,50.46 3.53,52.02 6.27,50.17 9.02,48.32 9.96,45.16 10.90,41.99 11.54,37.87 12.18,33.75 12.30,28.22 12.41,22.68 12.32,18.66 12.22,14.65 11.91,11.91 11.59,9.17 12.45,5.71 13.31,2.25 16.15,3.01 18.99,3.78 20.88,5.93 22.77,8.07 25.07,11.59 27.36,15.10 29.79,18.36 32.22,21.61 35.26,24.88 38.29,28.16 40.51,29.99 42.73,31.82 44.79,32.83 46.86,33.85 48.54,30.66 50.23,27.47 50.80,26.85 51.37,26.24 52.11,25.83 52.84,25.43 53.67,25.28 54.50,25.14 55.33,25.26 56.16,25.39 56.91,25.77 57.65,26.15 58.24,26.76 58.82,27.36 59.19,28.12 59.55,28.87 59.65,29.71 59.75,30.54 59.58,31.36 59.41,32.19 58.99,32.91 58.56,33.64 57.93,34.19 57.30,34.74 56.52,35.06 55.75,35.38 54.91,35.44 54.07,35.49 53.26,35.28 52.45,35.07 51.75,34.60 51.04,34.14 50.53,33.48 50.01,32.82 49.73,32.02 49.45,31.23 49.44,30.39 49.43,29.55 49.69,28.75 49.95,27.95 50.45,27.28 50.95,26.60 51.64,26.12 52.33,25.64 53.13,25.41 53.94,25.17 54.78,25.21 55.62,25.24 56.40,25.54 57.18,25.85 57.83,26.38 58.48,26.92 58.92,27.63 59.36,28.35 59.55,29.16 59.74,29.98 59.66,30.82 59.58,31.65 59.24,32.42 58.90,33.19 58.90,33.18 58.90,33.18 57.16,35.60 55.42,38.01 52.94,40.05 50.46,42.09 46.78,41.92 43.11,41.75 40.40,39.56 37.70,37.38 35.51,35.23 33.33,33.07 29.83,29.76 26.32,26.44 23.50,23.26 20.68,20.08 17.93,16.84 15.19,13.59 14.01,10.79 12.84,7.99 15.78,8.40 18.72,8.81 18.68,11.61 18.64,14.41 18.84,18.55 19.04,22.68 19.15,28.64 19.26,34.59 18.84,39.38 18.41,44.17 17.21,48.34 16.01,52.51 13.40,55.80 10.80,59.09 7.85,59.40 4.90,59.71 2.50,58.55 0.11,57.39 -3.08,55.15 -6.28,52.90 -9.02,49.71 -11.77,46.52 -14.20,42.23 -16.63,37.94 -18.42,32.08 -20.21,26.23 -19.69,21.58 -19.16,16.94 -17.02,12.52 -14.87,8.11 -11.88,5.30 -8.88,2.48 -5.55,-0.22 -2.23,-2.93 -1.84,-3.16 -1.46,-3.38 -1.03,-3.51 -0.61,-3.63 -0.16,-3.65 0.27,-3.67 0.71,-3.59 1.14,-3.50 1.55,-3.31 1.95,-3.12 2.29,-2.85 2.64,-2.57 2.91,-2.21 3.18,-1.86 3.36,-1.45 3.53,-1.04 3.61,-0.60 3.68,-0.17 3.65,0.27 3.61,0.71 3.48,1.13 3.34,1.56 3.10,1.93 2.87,2.31 2.55,2.62 2.23,2.93 2.23,2.93 L 2.23,2.93 Z"></path></g><g transform="translate(520.3385314941406 257.12567138671875) rotate(0 40.9814453125 59.18780517578125)" stroke="none"><path fill="#d3d3d3" d="M 3.88,-0.51 Q 3.88,-0.51 4.83,8.01 5.79,16.54 6.92,27.44 8.05,38.34 9.35,49.58 10.65,60.83 11.77,70.32 12.89,79.81 13.42,84.98 13.96,90.15 14.41,92.75 14.87,95.34 15.38,96.10 15.88,96.85 15.87,97.28 15.86,97.72 15.75,98.13 15.63,98.55 15.42,98.93 15.21,99.31 14.91,99.63 14.61,99.94 14.25,100.18 13.88,100.42 13.47,100.56 13.06,100.70 12.63,100.74 12.20,100.79 11.77,100.72 11.34,100.66 10.94,100.49 10.53,100.33 10.18,100.07 9.83,99.81 9.55,99.48 9.28,99.15 9.08,98.76 8.89,98.37 8.80,97.94 8.71,97.52 10.29,95.13 11.87,92.74 13.97,90.13 16.07,87.52 18.90,84.57 21.73,81.61 24.79,78.83 27.85,76.05 31.88,73.41 35.91,70.77 39.55,69.11 43.20,67.45 47.63,66.96 52.07,66.46 55.84,66.80 59.61,67.14 63.14,68.50 66.66,69.85 70.30,73.54 73.95,77.22 76.44,81.56 78.93,85.90 80.55,90.29 82.18,94.69 83.04,98.68 83.90,102.68 83.85,105.85 83.80,109.03 80.88,111.60 77.96,114.17 73.21,115.61 68.45,117.05 63.34,118.09 58.23,119.12 51.79,119.76 45.36,120.40 40.63,120.42 35.90,120.44 32.57,120.26 29.23,120.07 26.29,119.73 23.35,119.40 21.70,116.86 20.05,114.32 21.65,111.64 23.25,108.97 23.84,108.58 24.43,108.19 25.11,108.01 25.79,107.83 26.50,107.87 27.20,107.92 27.85,108.19 28.51,108.46 29.04,108.92 29.57,109.38 29.93,109.99 30.29,110.60 30.43,111.29 30.58,111.98 30.49,112.68 30.41,113.38 30.10,114.02 29.80,114.66 29.31,115.17 28.82,115.67 28.19,116.00 27.56,116.32 26.86,116.43 26.17,116.53 25.47,116.41 24.78,116.29 24.16,115.95 23.54,115.61 23.06,115.09 22.58,114.58 22.29,113.93 22.00,113.29 21.93,112.59 21.86,111.88 22.02,111.20 22.18,110.51 22.55,109.91 22.92,109.31 23.47,108.86 24.01,108.40 24.67,108.15 25.33,107.90 26.03,107.87 26.74,107.84 27.42,108.03 28.09,108.23 28.67,108.63 29.25,109.04 29.67,109.60 30.09,110.17 30.31,110.84 30.53,111.51 30.52,112.22 30.51,112.93 30.28,113.59 30.05,114.26 29.61,114.81 29.18,115.37 29.18,115.37 29.18,115.37 27.57,113.67 25.95,111.97 27.95,112.76 29.94,113.56 32.88,114.05 35.81,114.54 40.25,114.42 44.69,114.30 50.75,113.55 56.82,112.81 61.57,111.63 66.32,110.46 70.11,109.15 73.90,107.83 75.86,105.85 77.81,103.87 77.18,100.35 76.55,96.83 75.01,92.95 73.47,89.08 71.31,85.50 69.15,81.91 66.39,79.16 63.63,76.40 61.16,75.17 58.69,73.94 55.69,73.44 52.68,72.93 49.20,73.23 45.72,73.53 42.61,74.80 39.49,76.06 35.99,78.56 32.49,81.05 29.70,83.72 26.90,86.40 24.33,89.28 21.76,92.17 18.82,94.51 15.88,96.85 15.87,97.28 15.86,97.71 15.75,98.13 15.63,98.55 15.42,98.93 15.21,99.31 14.91,99.63 14.61,99.94 14.25,100.18 13.88,100.42 13.47,100.56 13.06,100.70 12.63,100.74 12.20,100.79 11.77,100.72 11.34,100.66 10.94,100.49 10.53,100.33 10.18,100.07 9.83,99.81 9.55,99.48 9.28,99.15 9.08,98.76 8.89,98.37 8.80,97.94 8.71,97.52 8.49,96.82 8.28,96.12 8.24,93.46 8.21,90.80 7.58,85.68 6.95,80.56 5.70,71.08 4.44,61.60 2.95,50.35 1.46,39.10 0.08,28.29 -1.28,17.48 -2.58,8.99 -3.88,0.51 -3.88,0.04 -3.89,-0.43 -3.78,-0.89 -3.67,-1.35 -3.46,-1.77 -3.24,-2.19 -2.93,-2.54 -2.62,-2.90 -2.24,-3.17 -1.85,-3.45 -1.41,-3.62 -0.97,-3.79 -0.51,-3.85 -0.04,-3.91 0.42,-3.86 0.89,-3.81 1.34,-3.65 1.78,-3.48 2.17,-3.22 2.56,-2.96 2.88,-2.61 3.20,-2.26 3.42,-1.84 3.64,-1.42 3.76,-0.97 3.88,-0.51 3.88,-0.51 L 3.88,-0.51 Z"></path></g><g transform="translate(668.0566711425781 330.4232177734375) rotate(0 -15.52740478515625 29.1748046875)" stroke="none"><path fill="#d3d3d3" d="M 0.79,3.84 Q 0.79,3.84 -6.80,5.23 -14.40,6.62 -20.92,8.38 -27.45,10.15 -32.84,12.09 -38.24,14.04 -40.98,15.51 -43.73,16.98 -42.59,20.41 -41.46,23.85 -38.37,27.33 -35.28,30.82 -30.63,34.44 -25.98,38.06 -18.95,41.81 -11.93,45.56 -6.23,48.00 -0.54,50.45 4.26,51.76 9.06,53.08 11.81,53.43 14.56,53.78 17.55,54.62 20.54,55.45 20.96,55.79 21.38,56.13 21.66,56.59 21.95,57.04 22.08,57.57 22.21,58.09 22.16,58.63 22.11,59.16 21.90,59.66 21.68,60.15 21.32,60.55 20.96,60.95 20.49,61.21 20.02,61.48 19.49,61.58 18.96,61.68 18.43,61.60 17.89,61.52 17.41,61.28 16.93,61.04 16.55,60.66 16.17,60.27 15.93,59.79 15.70,59.31 15.63,58.77 15.56,58.24 15.66,57.71 15.76,57.18 16.03,56.71 16.30,56.24 16.70,55.89 17.10,55.53 17.60,55.32 18.10,55.11 18.63,55.07 19.17,55.03 19.69,55.16 20.22,55.29 20.67,55.58 21.12,55.88 21.46,56.30 21.79,56.72 21.98,57.23 22.16,57.73 22.17,58.27 22.18,58.81 22.02,59.33 21.86,59.84 21.55,60.28 21.23,60.71 20.79,61.02 20.35,61.34 19.83,61.49 19.32,61.65 18.78,61.63 18.24,61.61 17.74,61.42 17.23,61.24 17.23,61.24 17.23,61.24 15.24,60.75 13.24,60.26 10.40,59.48 7.56,58.70 2.35,57.35 -2.85,56.01 -8.84,53.58 -14.84,51.16 -22.42,47.30 -29.99,43.43 -35.27,39.61 -40.54,35.79 -44.41,31.89 -48.27,27.98 -50.76,23.87 -53.25,19.76 -52.93,17.58 -52.62,15.40 -49.64,13.13 -46.67,10.85 -43.56,9.52 -40.46,8.18 -34.88,5.97 -29.30,3.76 -22.57,1.68 -15.85,-0.39 -8.32,-2.11 -0.79,-3.84 -0.32,-3.88 0.15,-3.92 0.61,-3.85 1.08,-3.77 1.52,-3.59 1.95,-3.40 2.33,-3.12 2.71,-2.83 3.01,-2.47 3.31,-2.10 3.52,-1.67 3.72,-1.25 3.82,-0.78 3.91,-0.32 3.89,0.15 3.87,0.62 3.74,1.07 3.61,1.53 3.38,1.94 3.14,2.35 2.81,2.69 2.48,3.03 2.08,3.29 1.68,3.54 1.24,3.69 0.79,3.84 0.79,3.84 L 0.79,3.84 Z"></path></g><g transform="translate(718.2650451660156 281.77734375) rotate(0 26.61944580078125 65.6689453125)" stroke="none"><path fill="#d3d3d3" d="M 2.60,-2.89 Q 2.60,-2.89 6.82,1.13 11.04,5.15 17.98,14.72 24.92,24.28 30.81,35.70 36.70,47.11 40.98,57.41 45.26,67.70 48.19,76.43 51.11,85.16 52.50,90.25 53.88,95.33 54.70,98.19 55.53,101.05 55.48,103.96 55.43,106.86 54.71,109.35 53.98,111.84 52.57,114.50 51.15,117.15 49.00,120.49 46.84,123.82 44.80,125.91 42.76,128.00 40.00,130.58 37.24,133.17 34.02,134.71 30.80,136.25 29.96,136.46 29.12,136.66 28.26,136.58 27.40,136.50 26.61,136.15 25.82,135.81 25.18,135.22 24.54,134.64 24.12,133.89 23.71,133.13 23.55,132.28 23.40,131.43 23.52,130.58 23.64,129.72 24.03,128.95 24.42,128.18 25.04,127.58 25.66,126.97 26.43,126.59 27.21,126.22 28.07,126.11 28.92,126.00 29.77,126.17 30.62,126.34 31.36,126.77 32.11,127.20 32.68,127.85 33.25,128.50 33.59,129.29 33.92,130.09 33.99,130.95 34.05,131.81 33.83,132.65 33.62,133.49 33.14,134.21 32.67,134.93 32.00,135.47 31.32,136.00 30.50,136.29 29.69,136.58 28.83,136.60 27.96,136.61 27.14,136.35 26.32,136.09 25.62,135.58 24.92,135.07 24.43,134.37 23.93,133.66 23.68,132.83 23.44,132.01 23.47,131.14 23.50,130.28 23.80,129.47 24.11,128.66 24.66,128.00 25.20,127.33 25.93,126.87 26.67,126.41 26.67,126.41 26.66,126.41 28.89,125.58 31.11,124.74 33.53,122.96 35.95,121.18 37.82,119.37 39.68,117.57 41.78,115.21 43.89,112.86 45.22,110.87 46.55,108.89 47.87,105.59 49.19,102.29 48.82,99.57 48.46,96.85 47.05,91.94 45.65,87.02 42.70,78.52 39.76,70.02 35.46,60.01 31.17,50.01 25.38,39.10 19.59,28.20 12.93,19.31 6.26,10.42 1.83,6.66 -2.60,2.89 -2.91,2.54 -3.22,2.18 -3.44,1.77 -3.65,1.35 -3.76,0.89 -3.87,0.43 -3.87,-0.03 -3.86,-0.50 -3.75,-0.95 -3.63,-1.41 -3.41,-1.82 -3.19,-2.23 -2.87,-2.58 -2.56,-2.93 -2.17,-3.20 -1.78,-3.46 -1.34,-3.62 -0.90,-3.79 -0.43,-3.84 0.03,-3.89 0.49,-3.83 0.96,-3.77 1.40,-3.60 1.83,-3.43 2.22,-3.16 2.60,-2.89 2.60,-2.89 L 2.60,-2.89 Z"></path></g><g transform="translate(805.2734680175781 286.4420166015625) rotate(0 26.42242431640625 70.66571044921875)" stroke="none"><path fill="#d3d3d3" d="M 2.32,-2.80 Q 2.32,-2.80 5.72,0.19 9.12,3.19 14.41,9.00 19.69,14.81 26.76,26.80 33.83,38.78 38.79,50.47 43.75,62.16 47.00,72.75 50.25,83.33 51.77,89.40 53.28,95.47 54.07,99.08 54.86,102.69 54.47,106.29 54.09,109.89 52.63,113.29 51.17,116.68 48.86,120.01 46.55,123.35 42.90,127.33 39.24,131.32 36.75,134.08 34.25,136.84 32.61,138.75 30.97,140.67 29.45,142.24 27.92,143.81 27.43,144.18 26.94,144.55 26.35,144.74 25.77,144.93 25.15,144.92 24.54,144.92 23.96,144.72 23.38,144.51 22.89,144.14 22.40,143.76 22.06,143.25 21.72,142.74 21.57,142.14 21.41,141.55 21.45,140.94 21.48,140.32 21.72,139.75 21.95,139.18 22.35,138.72 22.75,138.25 23.28,137.94 23.81,137.63 24.42,137.50 25.02,137.38 25.63,137.45 26.24,137.52 26.79,137.79 27.35,138.05 27.79,138.48 28.23,138.90 28.52,139.45 28.80,139.99 28.89,140.60 28.99,141.21 28.88,141.82 28.78,142.42 28.48,142.96 28.19,143.50 27.74,143.92 27.29,144.34 26.73,144.59 26.17,144.84 25.56,144.90 24.95,144.96 24.35,144.83 23.75,144.69 23.22,144.37 22.70,144.05 22.31,143.57 21.91,143.10 21.69,142.53 21.47,141.95 21.44,141.34 21.41,140.73 21.58,140.14 21.75,139.55 22.10,139.04 22.45,138.53 22.45,138.53 22.45,138.54 24.06,136.96 25.66,135.39 27.48,133.82 29.30,132.26 31.80,129.62 34.30,126.97 37.53,123.14 40.75,119.30 42.76,116.43 44.77,113.57 46.14,111.11 47.52,108.65 48.21,106.15 48.91,103.65 48.40,100.24 47.90,96.84 46.37,90.92 44.84,85.01 41.62,74.73 38.40,64.45 33.51,53.16 28.63,41.86 21.83,30.48 15.03,19.10 9.92,13.74 4.81,8.37 1.24,5.59 -2.32,2.80 -2.63,2.48 -2.93,2.16 -3.14,1.78 -3.36,1.40 -3.48,0.98 -3.60,0.55 -3.61,0.11 -3.63,-0.32 -3.54,-0.75 -3.45,-1.18 -3.25,-1.57 -3.06,-1.97 -2.78,-2.31 -2.50,-2.65 -2.15,-2.91 -1.79,-3.17 -1.39,-3.34 -0.98,-3.51 -0.55,-3.57 -0.11,-3.64 0.31,-3.60 0.75,-3.56 1.17,-3.42 1.58,-3.28 1.95,-3.04 2.32,-2.80 2.32,-2.80 L 2.32,-2.80 Z"></path></g><g transform="translate(915.9765930175781 325.46551513671875) rotate(0 0.99114990234375 63.753265380859375)" stroke="none"><path fill="#d3d3d3" d="M 3.02,1.14 Q 3.02,1.14 0.20,8.37 -2.61,15.60 -5.04,25.34 -7.47,35.08 -8.82,43.72 -10.17,52.36 -10.68,60.12 -11.19,67.87 -10.39,76.12 -9.59,84.36 -8.03,90.58 -6.47,96.79 -4.05,101.54 -1.63,106.29 1.99,110.39 5.63,114.48 8.39,116.81 11.15,119.15 13.16,120.42 15.17,121.69 17.26,123.38 19.36,125.06 19.68,125.51 20.01,125.95 20.18,126.48 20.34,127.01 20.33,127.57 20.32,128.12 20.14,128.64 19.95,129.17 19.60,129.60 19.26,130.04 18.80,130.34 18.33,130.64 17.79,130.78 17.26,130.92 16.70,130.88 16.15,130.83 15.64,130.62 15.13,130.40 14.71,130.04 14.30,129.67 14.02,129.19 13.74,128.71 13.63,128.16 13.53,127.62 13.60,127.07 13.67,126.52 13.91,126.02 14.15,125.52 14.54,125.13 14.93,124.73 15.43,124.48 15.92,124.23 16.47,124.15 17.02,124.07 17.56,124.17 18.11,124.27 18.59,124.54 19.08,124.81 19.45,125.22 19.83,125.63 20.05,126.14 20.27,126.65 20.32,127.20 20.37,127.75 20.24,128.29 20.11,128.83 19.82,129.30 19.52,129.77 19.09,130.12 18.66,130.47 18.14,130.67 17.62,130.86 17.07,130.88 16.51,130.90 15.98,130.74 15.45,130.58 15.00,130.26 14.55,129.94 14.55,129.94 14.55,129.94 12.80,128.44 11.06,126.94 9.19,125.18 7.33,123.42 4.47,120.71 1.61,118.01 -2.40,113.38 -6.41,108.75 -9.07,103.45 -11.73,98.15 -13.39,91.53 -15.06,84.91 -15.92,76.22 -16.77,67.54 -16.30,59.52 -15.83,51.51 -14.51,42.60 -13.20,33.68 -10.77,23.56 -8.35,13.43 -5.68,6.14 -3.02,-1.14 -2.84,-1.48 -2.66,-1.83 -2.40,-2.12 -2.14,-2.41 -1.82,-2.63 -1.50,-2.86 -1.14,-3.00 -0.77,-3.13 -0.39,-3.18 -0.00,-3.23 0.38,-3.18 0.76,-3.14 1.13,-3.00 1.49,-2.86 1.82,-2.64 2.14,-2.42 2.40,-2.13 2.65,-1.84 2.84,-1.49 3.02,-1.15 3.11,-0.77 3.21,-0.39 3.21,-0.00 3.21,0.38 3.11,0.76 3.02,1.14 3.02,1.14 L 3.02,1.14 Z"></path></g><g transform="translate(507.4804382324219 444.94793701171875) rotate(0 24.19598388671875 40.624969482421875)" stroke="none"><path fill="#d3d3d3" d="M 0.74,-3.12 Q 0.74,-3.12 6.00,-1.77 11.26,-0.43 15.32,1.69 19.39,3.82 22.44,6.94 25.49,10.06 27.50,15.07 29.50,20.09 30.17,24.57 30.83,29.05 30.43,33.49 30.03,37.93 26.95,44.40 23.87,50.87 20.20,56.19 16.53,61.52 12.16,66.36 7.79,71.20 5.02,74.16 2.25,77.11 0.77,78.91 -0.70,80.71 -1.66,82.07 -2.61,83.44 -2.98,83.72 -3.34,84.00 -3.76,84.19 -4.18,84.37 -4.63,84.45 -5.09,84.53 -5.54,84.50 -6.00,84.47 -6.44,84.33 -6.88,84.19 -7.27,83.95 -7.66,83.71 -7.99,83.39 -8.31,83.06 -8.55,82.67 -8.78,82.27 -8.92,81.83 -9.05,81.39 -9.08,80.93 -9.10,80.47 -9.02,80.02 -8.93,79.57 -8.74,79.15 -8.55,78.73 -8.26,78.37 -7.98,78.01 -5.78,77.53 -3.58,77.04 4.20,75.66 11.98,74.28 18.03,73.37 24.08,72.45 29.65,71.67 35.21,70.88 39.71,70.21 44.22,69.54 46.62,68.93 49.03,68.33 52.85,68.58 56.66,68.83 57.02,69.27 57.38,69.72 57.57,70.25 57.77,70.79 57.79,71.35 57.80,71.92 57.64,72.47 57.47,73.01 57.14,73.47 56.81,73.94 56.34,74.27 55.88,74.60 55.34,74.77 54.79,74.93 54.23,74.92 53.66,74.90 53.12,74.71 52.59,74.51 52.15,74.16 51.70,73.80 51.39,73.32 51.09,72.84 50.95,72.29 50.81,71.74 50.86,71.17 50.90,70.60 51.13,70.08 51.35,69.56 51.73,69.13 52.11,68.71 52.61,68.43 53.10,68.15 53.66,68.04 54.22,67.93 54.78,68.01 55.35,68.09 55.86,68.34 56.37,68.59 56.77,68.99 57.17,69.40 57.43,69.91 57.68,70.42 57.76,70.98 57.83,71.54 57.73,72.10 57.62,72.66 57.34,73.16 57.06,73.65 56.64,74.03 56.21,74.41 55.69,74.64 55.17,74.86 54.60,74.91 54.03,74.96 53.48,74.82 52.93,74.68 52.45,74.38 51.97,74.07 51.97,74.07 51.97,74.07 51.06,74.65 50.14,75.23 47.69,75.41 45.23,75.59 40.74,76.42 36.25,77.26 30.77,78.26 25.29,79.27 19.30,80.48 13.32,81.70 5.35,82.57 -2.61,83.44 -2.98,83.72 -3.34,84.00 -3.76,84.19 -4.18,84.37 -4.63,84.45 -5.08,84.53 -5.54,84.50 -6.00,84.47 -6.44,84.33 -6.88,84.19 -7.27,83.95 -7.66,83.71 -7.99,83.39 -8.31,83.06 -8.55,82.67 -8.78,82.27 -8.92,81.83 -9.05,81.39 -9.08,80.93 -9.10,80.47 -9.02,80.02 -8.93,79.57 -8.74,79.15 -8.55,78.73 -8.26,78.37 -7.98,78.01 -6.65,77.02 -5.33,76.02 -3.57,74.62 -1.80,73.22 0.96,70.38 3.73,67.55 7.85,62.97 11.98,58.38 15.39,53.39 18.80,48.40 21.55,42.82 24.31,37.23 24.72,33.54 25.14,29.85 24.58,26.02 24.03,22.20 22.48,18.13 20.93,14.07 18.74,11.53 16.55,8.99 13.17,7.23 9.79,5.47 4.52,4.29 -0.74,3.12 -1.10,2.98 -1.47,2.85 -1.79,2.63 -2.11,2.41 -2.36,2.12 -2.62,1.83 -2.81,1.49 -2.99,1.15 -3.08,0.78 -3.18,0.40 -3.18,0.02 -3.18,-0.36 -3.09,-0.74 -3.00,-1.11 -2.82,-1.46 -2.65,-1.80 -2.39,-2.09 -2.14,-2.38 -1.82,-2.60 -1.50,-2.83 -1.14,-2.97 -0.78,-3.10 -0.40,-3.15 -0.02,-3.20 0.36,-3.16 0.74,-3.11 0.74,-3.12 L 0.74,-3.12 Z"></path></g><g transform="translate(600.5046081542969 512.353515625) rotate(0 -8.67840576171875 21.365570068359375)" stroke="none"><path fill="#d3d3d3" d="M 3.81,1.66 Q 3.81,1.66 1.01,7.57 -1.79,13.48 -4.06,18.73 -6.33,23.99 -8.08,28.27 -9.82,32.56 -10.95,35.73 -12.08,38.89 -12.97,41.52 -13.85,44.15 -14.17,44.67 -14.49,45.19 -14.96,45.58 -15.42,45.98 -15.99,46.20 -16.56,46.42 -17.17,46.45 -17.78,46.48 -18.37,46.31 -18.96,46.15 -19.46,45.80 -19.97,45.45 -20.33,44.96 -20.70,44.47 -20.89,43.89 -21.08,43.31 -21.08,42.70 -21.08,42.09 -20.88,41.51 -20.68,40.94 -20.31,40.45 -19.93,39.97 -19.42,39.63 -18.92,39.29 -18.33,39.13 -17.74,38.97 -17.13,39.00 -16.52,39.04 -15.95,39.27 -15.38,39.50 -14.92,39.90 -14.46,40.30 -14.14,40.82 -13.83,41.35 -13.71,41.95 -13.58,42.55 -13.65,43.15 -13.72,43.76 -13.98,44.31 -14.24,44.87 -14.66,45.31 -15.08,45.75 -15.63,46.03 -16.17,46.31 -16.77,46.41 -17.38,46.50 -17.98,46.40 -18.58,46.30 -19.12,46.01 -19.66,45.72 -20.08,45.27 -20.49,44.83 -20.75,44.27 -21.00,43.71 -21.06,43.10 -21.12,42.50 -20.99,41.90 -20.85,41.30 -20.85,41.31 -20.85,41.31 -19.67,38.84 -18.49,36.38 -17.17,33.32 -15.86,30.26 -14.30,25.84 -12.73,21.42 -10.70,15.94 -8.67,10.47 -6.24,4.40 -3.81,-1.66 -3.56,-2.10 -3.30,-2.53 -2.95,-2.89 -2.60,-3.25 -2.17,-3.51 -1.75,-3.77 -1.27,-3.93 -0.79,-4.08 -0.29,-4.12 0.20,-4.15 0.70,-4.07 1.19,-3.98 1.65,-3.78 2.11,-3.58 2.51,-3.28 2.91,-2.97 3.22,-2.58 3.54,-2.19 3.75,-1.73 3.96,-1.28 4.05,-0.78 4.15,-0.29 4.12,0.20 4.10,0.70 3.96,1.18 3.81,1.66 3.81,1.66 L 3.81,1.66 Z"></path></g><g transform="translate(653.3625793457031 452.19403076171875) rotate(0 24.7054443359375 53.717437744140625)" stroke="none"><path fill="#d3d3d3" d="M 0.40,-3.87 Q 0.40,-3.87 7.51,-2.96 14.63,-2.05 21.33,-0.39 28.03,1.25 31.83,2.28 35.62,3.30 37.80,3.78 39.97,4.26 42.65,7.34 45.33,10.42 43.55,14.45 41.76,18.48 38.27,22.13 34.78,25.78 30.80,29.32 26.82,32.86 22.79,36.18 18.76,39.50 16.59,41.52 14.42,43.53 12.98,45.17 11.54,46.81 11.40,47.13 11.26,47.44 10.83,47.71 10.40,47.98 9.91,48.14 9.43,48.30 8.92,48.34 8.41,48.38 7.91,48.30 7.40,48.21 6.93,48.01 6.46,47.81 6.06,47.50 5.65,47.19 5.33,46.79 5.01,46.40 4.79,45.93 4.57,45.47 4.47,44.97 4.37,44.47 4.40,43.96 4.42,43.45 4.56,42.96 4.71,42.47 4.97,42.03 5.22,41.59 5.58,41.22 5.93,40.85 8.26,40.45 10.59,40.05 15.20,40.65 19.81,41.25 24.78,42.71 29.75,44.17 33.80,45.69 37.84,47.22 40.92,48.52 43.99,49.83 46.35,51.27 48.72,52.72 50.31,54.76 51.91,56.79 51.82,60.86 51.73,64.94 49.76,69.38 47.80,73.81 44.51,78.93 41.21,84.04 36.12,89.96 31.03,95.88 27.40,99.42 23.77,102.95 21.56,105.04 19.34,107.13 17.26,108.53 15.18,109.93 14.83,110.17 14.47,110.40 14.06,110.54 13.66,110.68 13.23,110.72 12.81,110.76 12.38,110.70 11.96,110.64 11.56,110.48 11.17,110.32 10.82,110.06 10.48,109.81 10.20,109.48 9.92,109.16 9.74,108.77 9.55,108.39 9.46,107.97 9.36,107.55 9.37,107.12 9.39,106.70 9.50,106.28 9.61,105.87 9.82,105.50 10.03,105.12 10.32,104.81 10.61,104.50 13.08,104.67 15.54,104.84 15.85,105.32 16.16,105.81 16.30,106.36 16.44,106.92 16.39,107.49 16.35,108.07 16.12,108.59 15.89,109.12 15.51,109.55 15.13,109.98 14.63,110.26 14.13,110.55 13.56,110.66 13.00,110.76 12.43,110.69 11.86,110.61 11.35,110.36 10.83,110.10 10.42,109.70 10.02,109.29 9.76,108.78 9.51,108.26 9.43,107.69 9.35,107.12 9.46,106.56 9.56,106.00 9.85,105.49 10.13,104.99 10.55,104.61 10.98,104.23 11.51,104.00 12.04,103.77 12.61,103.72 13.18,103.68 13.74,103.81 14.30,103.95 14.78,104.26 15.27,104.57 15.63,105.02 15.99,105.46 16.19,106.00 16.39,106.54 16.40,107.12 16.42,107.69 16.25,108.24 16.08,108.79 15.75,109.26 15.41,109.72 14.95,110.06 14.48,110.39 13.93,110.56 13.38,110.73 12.81,110.72 12.23,110.70 11.69,110.51 11.15,110.31 13.17,110.12 15.18,109.93 14.83,110.17 14.47,110.40 14.06,110.54 13.66,110.68 13.23,110.72 12.81,110.76 12.38,110.70 11.96,110.64 11.56,110.48 11.17,110.32 10.82,110.06 10.48,109.81 10.20,109.48 9.92,109.16 9.74,108.77 9.55,108.39 9.46,107.97 9.36,107.55 9.37,107.12 9.39,106.70 9.50,106.28 9.61,105.87 9.82,105.50 10.03,105.12 10.32,104.81 10.61,104.50 12.72,103.11 14.82,101.72 17.03,100.09 19.24,98.46 22.52,95.00 25.81,91.53 30.37,85.87 34.92,80.21 37.58,75.51 40.24,70.81 42.23,65.50 44.22,60.19 42.46,58.59 40.70,56.98 38.07,55.69 35.44,54.40 31.63,53.29 27.82,52.19 23.05,51.31 18.28,50.43 14.77,48.94 11.26,47.44 10.83,47.71 10.40,47.98 9.91,48.14 9.43,48.30 8.92,48.34 8.41,48.38 7.91,48.30 7.40,48.21 6.93,48.01 6.47,47.81 6.06,47.50 5.65,47.19 5.33,46.79 5.01,46.40 4.79,45.93 4.57,45.47 4.47,44.97 4.37,44.47 4.40,43.96 4.42,43.45 4.56,42.96 4.71,42.47 4.97,42.03 5.22,41.59 5.58,41.22 5.93,40.85 6.05,40.70 6.17,40.55 8.00,39.29 9.84,38.02 12.17,36.29 14.50,34.56 18.26,31.16 22.02,27.76 25.55,24.22 29.08,20.68 31.75,17.44 34.41,14.20 36.41,13.04 38.40,11.88 36.15,10.78 33.90,9.68 30.22,8.69 26.55,7.70 20.22,6.35 13.89,5.01 6.74,4.44 -0.40,3.87 -0.85,3.77 -1.31,3.66 -1.73,3.45 -2.15,3.24 -2.51,2.93 -2.87,2.63 -3.14,2.25 -3.41,1.87 -3.59,1.43 -3.76,0.99 -3.83,0.53 -3.89,0.06 -3.84,-0.39 -3.79,-0.86 -3.64,-1.30 -3.48,-1.75 -3.22,-2.14 -2.96,-2.53 -2.61,-2.85 -2.26,-3.16 -1.85,-3.39 -1.44,-3.61 -0.99,-3.73 -0.53,-3.85 -0.06,-3.86 0.40,-3.87 0.40,-3.87 L 0.40,-3.87 Z"></path></g></svg>